<svg width="29" height="37" viewBox="0 0 29 37" fill="none" xmlns="http://www.w3.org/2000/svg">
<path fill-rule="evenodd" clip-rule="evenodd" d="M7.19995 9.25V7.4C7.19995 5.4374 7.93745 3.55518 9.2502 2.16741C10.563 0.779641 12.3434 0 14.2 0C16.0565 0 17.8369 0.779641 19.1497 2.16741C20.4625 3.55518 21.2 5.4374 21.2 7.4V9.25H26.45C27.416 9.25 28.2 10.0807 28.2 11.113V33.3148C28.2 35.3498 26.6337 37 24.7105 37H3.68945C2.76458 37 1.87755 36.6119 1.22324 35.9209C0.568931 35.2299 0.200879 34.2925 0.199951 33.3148V11.1148C0.199951 10.0825 0.978701 9.25 1.94995 9.25H7.19995ZM9.29995 9.25H19.1V7.4C19.1 6.02618 18.5837 4.70863 17.6648 3.73719C16.7458 2.76575 15.4995 2.22 14.2 2.22C12.9004 2.22 11.6541 2.76575 10.7351 3.73719C9.8162 4.70863 9.29995 6.02618 9.29995 7.4V9.25ZM7.19995 11.47H2.29995V33.3148C2.29995 34.1214 2.92295 34.78 3.68945 34.78H24.7105C25.0784 34.78 25.4313 34.6257 25.6917 34.3511C25.9522 34.0764 26.099 33.7037 26.0999 33.3148V11.47H21.2V16.65H19.1V11.47H9.29995V16.65H7.19995V11.47Z" fill="#586053"/>
</svg>
